# Blender v2.93.4 OBJ File: 'CreditCard.blend'
# www.blender.org
mtllib CreditCardz.mtl
o Credit_Card
v -2.520125 3.962000 -0.000000
v -2.520125 3.565800 -0.000000
v -2.699000 3.565800 -0.000000
v -2.699000 3.962000 -0.000000
v 2.381000 4.101125 0.076000
v 2.520125 4.101125 0.076000
v 2.520125 4.260125 0.076000
v 2.381000 4.280000 0.076000
v -2.699000 3.565800 0.076000
v -2.699000 3.962000 0.076000
v 0.119050 -4.280000 -0.000000
v 0.119050 -4.280000 0.076000
v -2.381000 -4.280000 0.076000
v -2.381000 -4.280000 -0.000000
v 2.699000 2.624825 0.000000
v 2.699000 2.624825 0.076000
v 2.699000 -3.962000 0.076000
v 2.699000 -3.962000 0.000000
v 0.797635 4.280000 0.000000
v 0.797635 4.280000 0.076000
v 2.381000 4.280000 0.000000
v -2.679125 -4.101125 0.076000
v -2.699000 -3.962000 0.076000
v -2.699000 -3.962000 -0.000000
v -2.679125 -4.101125 -0.000000
v -2.679125 4.101125 -0.000000
v -2.679125 4.101125 0.076000
v 2.520125 -4.260125 0.076000
v 2.381000 -4.280000 0.076000
v 2.381000 -4.280000 0.000000
v 2.520125 -4.260125 0.000000
v 2.679125 4.101125 0.076000
v 2.699000 3.962000 0.076000
v 2.699000 3.962000 0.000000
v 2.679125 4.101125 0.000000
v -2.619500 -4.200500 0.076000
v -2.619500 -4.200500 -0.000000
v -2.520125 -4.260125 0.076000
v -2.520125 -4.260125 -0.000000
v -2.619500 4.200500 -0.000000
v -2.619500 4.200500 0.076000
v -2.520125 4.260125 -0.000000
v -2.520125 4.260125 0.076000
v -2.381000 4.280000 -0.000000
v -2.381000 4.280000 0.076000
v 2.619500 -4.200500 0.076000
v 2.619500 -4.200500 0.000000
v 2.679125 -4.101125 0.076000
v 2.679125 -4.101125 0.000000
v 2.619500 4.200500 0.076000
v 2.619500 4.200500 0.000000
v 2.520125 4.260125 0.000000
v -2.520125 4.101125 -0.000000
v 2.520125 -3.962000 0.076000
v 2.520125 2.624825 0.076000
v 2.381000 2.624825 0.076000
v 2.381000 -3.962000 0.076000
v 2.520125 3.962000 0.076000
v 2.381000 3.962000 0.076000
v -2.520125 -3.962000 -0.000000
v -2.520125 -4.101125 -0.000000
v 2.520125 -4.101125 0.076000
v 2.381000 -4.101125 0.076000
v 0.797635 4.101125 0.076000
v 0.797635 3.962000 0.076000
v 0.797635 -3.962000 0.076000
v 0.797635 -4.101125 0.076000
v 0.797635 -4.280000 0.076000
v -2.520125 4.101125 0.076000
v -2.381000 4.101125 0.076000
v -2.520125 3.962000 0.076000
v -2.381000 3.962000 0.076000
v -2.520125 3.565800 0.076000
v -2.381000 3.565800 0.076000
v -2.520125 -3.962000 0.076000
v -2.520125 -4.101125 0.076000
v -2.381000 -4.101125 0.076000
v -2.381000 -3.962000 0.076000
v 0.119050 4.280000 0.000000
v 0.119050 4.101125 0.000000
v -2.381000 4.101125 -0.000000
v 0.119050 3.962000 0.000000
v -2.381000 3.962000 -0.000000
v 0.119050 3.565800 0.000000
v -2.381000 3.565800 -0.000000
v 0.119050 -3.962000 -0.000000
v 0.119050 -4.101125 -0.000000
v -2.381000 -4.101125 -0.000000
v -2.381000 -3.962000 -0.000000
v -2.520125 2.624825 -0.000000
v -2.381000 2.624825 -0.000000
v 2.520125 4.101125 0.000000
v 2.520125 3.962000 0.000000
v 2.699000 3.565800 0.000000
v 2.520125 3.565801 0.000000
v 2.520125 -3.962000 0.000000
v 2.520125 -4.101125 0.000000
v 2.381000 -4.101125 0.000000
v 2.381000 -3.962000 0.000000
v 2.381000 2.624825 0.000000
v 2.520125 2.624826 0.000000
v 2.381000 3.962000 0.000000
v 2.381000 4.101125 0.000000
v 0.693585 -4.280000 -0.000000
v 0.693585 -4.280000 0.076000
v 0.223100 -4.280000 0.076000
v 0.223100 -4.280000 -0.000000
v 0.119050 4.280000 0.076000
v 0.119050 4.101125 0.076000
v 0.119050 3.962000 0.076000
v 0.119050 -4.101125 0.076000
v 0.119050 -3.962000 0.076000
v 0.693585 4.280000 0.000000
v 0.693585 4.101125 0.000000
v 0.223099 4.101125 0.000000
v 0.223100 4.280000 0.000000
v 0.693586 3.962000 0.000000
v 0.223100 3.962000 0.000000
v 0.693586 3.565800 0.000000
v 0.223100 3.565800 0.000000
v 0.693586 -3.962000 -0.000000
v 0.693585 -4.101125 -0.000000
v 0.223100 -4.101125 -0.000000
v 0.223100 -3.962000 -0.000000
v 0.223100 4.280000 0.076000
v 0.693585 4.280000 0.076000
v 0.223100 4.101125 0.076000
v 0.693585 4.101125 0.076000
v 0.223100 3.962000 0.076000
v 0.693585 3.962000 0.076000
v 0.223100 -3.962000 0.076000
v 0.223100 -4.101125 0.076000
v 0.693585 -4.101125 0.076000
v 0.693585 -3.962000 0.076000
v 0.797635 -4.280000 -0.000000
v 0.797635 4.101125 0.000000
v 0.797635 3.962000 0.000000
v 2.381000 3.565800 0.000000
v 0.797635 3.565800 0.000000
v 0.797635 -4.101125 -0.000000
v 0.797635 -3.962000 -0.000000
v -2.520125 2.735389 -0.000000
v -2.699000 2.735389 -0.000000
v -2.699000 3.455235 -0.000000
v -2.520125 3.455235 -0.000000
v -2.699000 2.735389 0.076000
v -2.699000 3.455235 0.076000
v 2.699000 3.565800 0.076000
v 2.381000 3.565800 0.076000
v 2.520125 3.565800 0.076000
v -2.520125 2.735389 0.076000
v -2.381000 2.735389 0.076000
v -2.381000 3.455235 0.076000
v -2.520125 3.455235 0.076000
v 0.119050 2.735389 0.000000
v -2.381000 2.735389 -0.000000
v -2.381000 3.455235 -0.000000
v 0.119050 3.455235 0.000000
v 2.699000 2.735389 0.000000
v 2.520125 2.735390 0.000000
v 2.520125 3.455236 0.000000
v 2.699000 3.455235 0.000000
v 0.223100 3.455235 0.000000
v 0.693586 3.455235 0.000000
v 0.693586 2.735389 0.000000
v 0.223100 2.735389 0.000000
v 0.766456 3.543587 0.066000
v 0.697635 3.565800 0.066000
v 0.697635 3.465800 0.066000
v 0.797635 3.465800 0.066000
v 2.381000 2.735389 0.000000
v 0.797635 2.735389 0.000000
v 0.797635 3.455235 0.000000
v 2.381000 3.455235 0.000000
v 2.699000 3.455235 0.076000
v 2.699000 2.735389 0.076000
v 2.520125 3.455235 0.076000
v 2.381000 3.455235 0.076000
v 2.381000 2.735389 0.076000
v 2.520125 2.735389 0.076000
v -2.699000 2.624825 -0.000000
v -2.699000 2.624825 0.076000
v -2.381000 2.624825 0.076000
v -2.520125 2.624825 0.076000
v 0.119050 2.624825 0.000000
v 0.223100 2.624825 0.000000
v 0.693586 2.624825 0.000000
v 0.797635 2.624825 0.000000
v 0.766456 2.647037 0.076000
v 0.766456 3.543587 0.076000
v 0.697635 3.565800 0.076000
v 0.697635 2.624825 0.076000
v 0.797635 2.724825 0.076000
v 0.119050 2.724825 0.076000
v 0.150229 2.647037 0.076000
v 0.150229 3.543587 0.076000
v 0.219050 3.565800 0.076000
v 0.219050 2.624825 0.076000
v 0.797635 3.465800 0.076000
v 0.119050 3.465800 0.076000
v 0.150229 3.543587 0.066000
v 0.119050 3.465800 0.066000
v 0.219050 3.465800 0.066000
v 0.219050 3.565800 0.066000
v 0.119050 2.724825 0.066000
v 0.150229 2.647037 0.066000
v 0.219050 2.624825 0.066000
v 0.219050 2.724825 0.066000
v 0.697635 2.624825 0.066000
v 0.697635 2.724825 0.066000
v 0.766456 2.647037 0.066000
v 0.797635 2.724825 0.066000
vt 0.727542 0.539220
vt 0.692825 0.539221
vt 0.692824 0.523546
vt 0.727542 0.523546
vt 0.019308 0.453244
vt 0.019231 0.465208
vt 0.005562 0.465119
vt 0.003931 0.453150
vt 0.974368 0.611832
vt 0.907777 0.611635
vt 0.908347 0.601228
vt 0.974304 0.601424
vt 0.970011 0.876570
vt 0.900460 0.877488
vt 0.903418 0.808441
vt 0.969809 0.807564
vt 0.980390 0.327428
vt 0.912499 0.327228
vt 0.916093 0.216846
vt 0.982180 0.217041
vt 0.978833 0.455289
vt 0.909650 0.456201
vt 0.911954 0.411279
vt 0.978316 0.410403
vt 0.904087 0.779439
vt 0.904265 0.766077
vt 0.970352 0.766272
vt 0.969878 0.779634
vt 0.974280 0.596465
vt 0.908611 0.596269
vt 0.900289 0.978416
vt 0.900223 0.969311
vt 0.966585 0.968436
vt 0.966157 0.977547
vt 0.912165 0.386653
vt 0.912141 0.381694
vt 0.978098 0.381890
vt 0.977833 0.386849
vt 0.904090 0.788575
vt 0.969690 0.788239
vt 0.903888 0.797116
vt 0.969791 0.796246
vt 0.974317 0.591159
vt 0.908776 0.591494
vt 0.974651 0.582599
vt 0.908748 0.583469
vt 0.975121 0.571274
vt 0.908729 0.572151
vt 0.900341 0.983482
vt 0.965905 0.982617
vt 0.916567 0.203484
vt 0.916825 0.196805
vt 0.982425 0.197000
vt 0.982358 0.203679
vt 0.912412 0.393291
vt 0.977935 0.392956
vt 0.912381 0.402168
vt 0.978250 0.401299
vt 0.739733 0.525288
vt 0.739733 0.539220
vt 0.728610 0.473207
vt 0.146881 0.466117
vt 0.146943 0.453977
vt 0.728760 0.460919
vt 0.031197 0.465286
vt 0.031274 0.453319
vt 0.748441 0.530512
vt 0.753666 0.539220
vt 0.020994 0.525286
vt 0.033185 0.523545
vt 0.033185 0.539219
vt 0.020994 0.539219
vt 0.740901 0.473356
vt 0.741050 0.461065
vt 0.012286 0.530511
vt 0.007061 0.539219
vt 0.754950 0.473526
vt 0.756855 0.461253
vt 0.004728 0.317055
vt 0.019942 0.317141
vt 0.031695 0.317119
vt 0.730430 0.321064
vt 0.742696 0.321192
vt 0.758499 0.321344
vt 0.749574 0.482242
vt 0.740728 0.487403
vt 0.728416 0.489006
vt 0.146702 0.481798
vt 0.031089 0.480677
vt 0.019137 0.478882
vt 0.010629 0.473695
vt 0.006903 0.031036
vt 0.020712 0.031047
vt 0.020702 0.043130
vt 0.005167 0.043116
vt 0.032796 0.031056
vt 0.032786 0.043139
vt 0.067222 0.031093
vt 0.067223 0.043205
vt 0.729784 0.028766
vt 0.742047 0.028716
vt 0.742097 0.040979
vt 0.729833 0.041028
vt 0.756063 0.028660
vt 0.757865 0.040917
vt 0.012087 0.022410
vt 0.020721 0.017237
vt 0.032805 0.015519
vt 0.067221 0.015535
vt 0.729720 0.013001
vt 0.741990 0.014702
vt 0.750771 0.019921
vt 0.755408 0.770481
vt 0.739734 0.770482
vt 0.739733 0.551412
vt 0.755407 0.551411
vt 0.727543 0.770482
vt 0.727542 0.551412
vt 0.692826 0.770483
vt 0.692825 0.551412
vt 0.033185 0.770482
vt 0.020994 0.770482
vt 0.020994 0.551410
vt 0.033185 0.551410
vt 0.005319 0.770481
vt 0.005320 0.551410
vt 0.610370 0.539221
vt 0.610370 0.551412
vt 0.748447 0.989592
vt 0.739739 0.994817
vt 0.739739 0.980884
vt 0.753671 0.980884
vt 0.727547 0.996559
vt 0.727547 0.980884
vt 0.692829 0.996560
vt 0.692829 0.980885
vt 0.033183 0.980884
vt 0.033183 0.996558
vt 0.020991 0.994817
vt 0.020991 0.980884
vt 0.012283 0.989592
vt 0.007058 0.980883
vt 0.005317 0.968692
vt 0.020991 0.968692
vt 0.033183 0.968692
vt 0.610372 0.968694
vt 0.610372 0.980885
vt 0.727547 0.968693
vt 0.739738 0.968693
vt 0.755413 0.968693
vt 0.969256 0.911501
vt 0.899819 0.912417
vt 0.900128 0.891262
vt 0.969793 0.890343
vt 0.908528 0.503145
vt 0.978079 0.502227
vt 0.020280 0.260277
vt 0.004950 0.260244
vt 0.032118 0.260425
vt 0.742934 0.261347
vt 0.730673 0.261382
vt 0.758722 0.261317
vt 0.755410 0.820826
vt 0.739736 0.820827
vt 0.739735 0.779599
vt 0.755409 0.779599
vt 0.727545 0.820827
vt 0.727544 0.779600
vt 0.692827 0.820828
vt 0.692826 0.779600
vt 0.033184 0.820828
vt 0.020992 0.820828
vt 0.020993 0.779600
vt 0.033184 0.779600
vt 0.005318 0.820827
vt 0.005319 0.779599
vt 0.978411 0.488453
vt 0.908746 0.489371
vt 0.909283 0.468213
vt 0.978720 0.467298
vt 0.005149 0.269031
vt 0.020272 0.269067
vt 0.020015 0.308381
vt 0.004945 0.308284
vt 0.032103 0.269141
vt 0.031776 0.308420
vt 0.730692 0.270471
vt 0.742937 0.270507
vt 0.742767 0.312022
vt 0.730508 0.311954
vt 0.758729 0.270535
vt 0.758569 0.312117
vt 0.899706 0.924426
vt 0.968889 0.923513
vt 0.739736 0.829944
vt 0.755411 0.829944
vt 0.727545 0.829945
vt 0.692828 0.968693
vt 0.692827 0.829946
vt 0.020992 0.829945
vt 0.033183 0.829945
vt 0.005318 0.829945
vt 0.620059 0.539221
vt 0.620059 0.523547
vt 0.683136 0.523546
vt 0.683136 0.539221
vt 0.974253 0.640608
vt 0.906493 0.640408
vt 0.907415 0.620235
vt 0.974313 0.620433
vt 0.912077 0.371286
vt 0.978668 0.371483
vt 0.065388 0.453473
vt 0.065305 0.465496
vt 0.065185 0.480925
vt 0.139651 0.031089
vt 0.139715 0.043257
vt 0.076819 0.043193
vt 0.076836 0.031089
vt 0.139602 0.015452
vt 0.076831 0.015513
vt 0.620059 0.770484
vt 0.620058 0.551412
vt 0.683136 0.551412
vt 0.683137 0.770483
vt 0.620060 0.996560
vt 0.620061 0.980885
vt 0.683140 0.980885
vt 0.683140 0.996560
vt 0.683137 0.779601
vt 0.683138 0.820828
vt 0.620060 0.820829
vt 0.620059 0.779601
vt 0.990346 0.027152
vt 0.995906 0.043772
vt 0.971112 0.043847
vt 0.971036 0.019672
vt 0.620061 0.968694
vt 0.620060 0.829946
vt 0.683139 0.829946
vt 0.683140 0.968694
vt 0.979030 0.362883
vt 0.912132 0.362684
vt 0.912192 0.342510
vt 0.979952 0.342710
vt 0.074843 0.465574
vt 0.074913 0.453568
vt 0.137455 0.453851
vt 0.137281 0.465998
vt 0.074719 0.481038
vt 0.137097 0.481579
vt 0.610370 0.523546
vt 0.906055 0.655690
vt 0.973946 0.655890
vt 0.149268 0.043243
vt 0.149289 0.031064
vt 0.149245 0.015367
vt 0.610370 0.770484
vt 0.610372 0.996560
vt 0.610371 0.779601
vt 0.610371 0.820829
vt 0.610371 0.829947
vt 0.146146 0.311401
vt 0.067361 0.314134
vt 0.065185 0.308826
vt 0.147886 0.310556
vt 0.138923 0.315064
vt 0.140489 0.262905
vt 0.147802 0.266451
vt 0.068155 0.263763
vt 0.065662 0.269234
vt 0.147913 0.267336
vt 0.074082 0.315925
vt 0.075179 0.261919
vt 0.990816 0.176118
vt 0.971554 0.183714
vt 0.971477 0.159540
vt 0.996271 0.159465
vt 0.787840 0.184264
vt 0.768529 0.176785
vt 0.762970 0.160164
vt 0.787763 0.160090
vt 0.762605 0.044471
vt 0.787399 0.044397
vt 0.768060 0.027818
vt 0.787323 0.020223
vt 0.792250 0.807435
vt 0.793652 0.696292
vt 0.860332 0.697837
vt 0.858930 0.808980
vt 0.793601 0.673589
vt 0.859365 0.674632
vt 0.792433 0.647959
vt 0.859426 0.648529
vt 0.793326 0.542934
vt 0.860319 0.543504
vt 0.794068 0.521141
vt 0.859838 0.521701
vt 0.793714 0.502250
vt 0.860405 0.502818
vt 0.794659 0.391097
vt 0.861350 0.391664
vt 0.795275 0.373512
vt 0.861034 0.374072
vt 0.791351 0.976797
vt 0.790919 0.956292
vt 0.857912 0.956862
vt 0.857132 0.977357
vt 0.791813 0.851267
vt 0.858806 0.851837
vt 0.792545 0.827902
vt 0.858309 0.828945
vn 0.0000 0.0000 -1.0000
vn -0.0000 -0.0000 1.0000
vn -1.0000 -0.0000 0.0000
vn -0.9975 0.0709 0.0000
vn 0.0000 -1.0000 0.0000
vn -0.0709 -0.9975 0.0000
vn 1.0000 0.0000 0.0000
vn 0.9975 -0.0709 0.0000
vn 0.0000 1.0000 0.0000
vn 0.0709 0.9975 0.0000
vn -0.9424 -0.3346 0.0000
vn -0.9975 -0.0709 0.0000
vn -0.9424 0.3346 0.0000
vn 0.3346 -0.9424 0.0000
vn 0.0709 -0.9975 0.0000
vn 0.9424 0.3346 0.0000
vn 0.9975 0.0709 0.0000
vn -0.7071 -0.7071 0.0000
vn -0.3346 -0.9424 0.0000
vn -0.7071 0.7071 0.0000
vn -0.3346 0.9424 0.0000
vn -0.0709 0.9975 -0.0000
vn 0.7071 -0.7071 0.0000
vn 0.9424 -0.3346 0.0000
vn 0.7071 0.7071 0.0000
vn 0.3346 0.9424 0.0000
vn 0.9819 -0.1895 0.0000
vn 0.9819 0.1895 0.0000
vn 0.6823 0.7311 0.0000
vn 0.1555 0.9878 0.0000
vn -0.1555 0.9878 0.0000
vn -0.6823 0.7311 0.0000
vn -0.9819 0.1895 0.0000
vn -0.9819 -0.1895 0.0000
vn -0.6823 -0.7311 0.0000
vn -0.1555 -0.9878 0.0000
vn 0.1555 -0.9878 0.0000
vn 0.6823 -0.7311 0.0000
usemtl 01___Default
s 1
f 1/1/1 2/2/1 3/3/1 4/4/1
f 5/5/2 6/6/2 7/7/2 8/8/2
f 3/9/3 9/10/3 10/11/4 4/12/4
f 11/13/5 12/14/5 13/15/6 14/16/6
f 15/17/7 16/18/7 17/19/8 18/20/8
f 19/21/9 20/22/9 8/23/10 21/24/10
f 22/25/11 23/26/12 24/27/12 25/28/11
f 26/29/13 4/12/4 10/11/4 27/30/13
f 28/31/14 29/32/15 30/33/15 31/34/14
f 32/35/16 33/36/17 34/37/17 35/38/16
f 36/39/18 22/25/11 25/28/11 37/40/18
f 38/41/19 36/39/18 37/40/18 39/42/19
f 13/15/6 38/41/19 39/42/19 14/16/6
f 40/43/20 26/29/13 27/30/13 41/44/20
f 42/45/21 40/43/20 41/44/20 43/46/21
f 44/47/22 42/45/21 43/46/21 45/48/22
f 46/49/23 28/31/14 31/34/14 47/50/23
f 48/51/24 46/52/23 47/53/23 49/54/24
f 17/19/8 48/51/24 49/54/24 18/20/8
f 50/55/25 32/35/16 35/38/16 51/56/25
f 7/57/26 50/55/25 51/56/25 52/58/26
f 8/23/10 7/57/26 52/58/26 21/24/10
f 26/59/1 53/60/1 1/1/1 4/4/1
f 54/61/2 55/62/2 56/63/2 57/64/2
f 58/65/2 6/6/2 5/5/2 59/66/2
f 40/67/1 42/68/1 53/60/1 26/59/1
f 25/69/1 24/70/1 60/71/1 61/72/1
f 62/73/2 54/61/2 57/64/2 63/74/2
f 37/75/1 25/69/1 61/72/1 39/76/1
f 28/77/2 62/73/2 63/74/2 29/78/2
f 20/79/2 64/80/2 5/5/2 8/8/2
f 64/80/2 65/81/2 59/66/2 5/5/2
f 66/82/2 67/83/2 63/74/2 57/64/2
f 67/83/2 68/84/2 29/78/2 63/74/2
f 28/77/2 46/85/2 48/86/2 62/73/2
f 48/86/2 17/87/2 54/61/2 62/73/2
f 17/87/2 16/88/2 55/62/2 54/61/2
f 58/65/2 33/89/2 32/90/2 6/6/2
f 6/6/2 32/90/2 50/91/2 7/7/2
f 43/92/2 69/93/2 70/94/2 45/95/2
f 69/93/2 71/96/2 72/97/2 70/94/2
f 71/96/2 73/98/2 74/99/2 72/97/2
f 75/100/2 76/101/2 77/102/2 78/103/2
f 77/102/2 76/101/2 38/104/2 13/105/2
f 41/106/2 27/107/2 69/93/2 43/92/2
f 27/107/2 10/108/2 71/96/2 69/93/2
f 10/108/2 9/109/2 73/98/2 71/96/2
f 75/100/2 23/110/2 22/111/2 76/101/2
f 76/101/2 22/111/2 36/112/2 38/104/2
f 79/113/1 80/114/1 81/115/1 44/116/1
f 80/114/1 82/117/1 83/118/1 81/115/1
f 82/117/1 84/119/1 85/120/1 83/118/1
f 86/121/1 87/122/1 88/123/1 89/124/1
f 87/122/1 11/125/1 14/126/1 88/123/1
f 39/76/1 61/72/1 88/123/1 14/126/1
f 61/72/1 60/71/1 89/124/1 88/123/1
f 60/71/1 90/127/1 91/128/1 89/124/1
f 1/1/1 53/60/1 81/115/1 83/118/1
f 81/115/1 53/60/1 42/68/1 44/116/1
f 51/129/1 35/130/1 92/131/1 52/132/1
f 35/130/1 34/133/1 93/134/1 92/131/1
f 34/133/1 94/135/1 95/136/1 93/134/1
f 96/137/1 18/138/1 49/139/1 97/140/1
f 97/140/1 49/139/1 47/141/1 31/142/1
f 31/142/1 30/143/1 98/144/1 97/140/1
f 98/144/1 99/145/1 96/137/1 97/140/1
f 99/145/1 100/146/1 101/147/1 96/137/1
f 102/148/1 103/149/1 92/131/1 93/134/1
f 103/149/1 21/150/1 52/132/1 92/131/1
f 104/151/5 105/152/5 106/153/5 107/154/5
f 44/47/22 45/48/22 108/155/9 79/156/9
f 45/95/2 70/94/2 109/157/2 108/158/2
f 70/94/2 72/97/2 110/159/2 109/157/2
f 78/103/2 77/102/2 111/160/2 112/161/2
f 77/102/2 13/105/2 12/162/2 111/160/2
f 113/163/1 114/164/1 115/165/1 116/166/1
f 114/164/1 117/167/1 118/168/1 115/165/1
f 117/167/1 119/169/1 120/170/1 118/168/1
f 121/171/1 122/172/1 123/173/1 124/174/1
f 122/172/1 104/175/1 107/176/1 123/173/1
f 116/177/9 125/178/9 126/179/9 113/180/9
f 125/181/2 127/182/2 128/183/2 126/184/2
f 127/182/2 129/185/2 130/186/2 128/183/2
f 131/187/2 132/188/2 133/189/2 134/190/2
f 132/188/2 106/191/2 105/192/2 133/189/2
f 30/33/15 29/32/15 68/193/5 135/194/5
f 21/150/1 103/149/1 136/195/1 19/196/1
f 103/149/1 102/148/1 137/197/1 136/195/1
f 102/148/1 138/198/1 139/199/1 137/197/1
f 99/145/1 98/144/1 140/200/1 141/201/1
f 98/144/1 30/143/1 135/202/1 140/200/1
f 142/203/1 143/204/1 144/205/1 145/206/1
f 143/207/3 146/208/3 147/209/3 144/210/3
f 34/37/17 33/36/17 148/211/7 94/212/7
f 58/65/2 59/66/2 149/213/2 150/214/2
f 33/89/2 58/65/2 150/214/2 148/215/2
f 151/216/2 152/217/2 153/218/2 154/219/2
f 146/220/2 151/216/2 154/219/2 147/221/2
f 155/222/1 156/223/1 157/224/1 158/225/1
f 1/1/1 83/118/1 85/120/1 2/2/1
f 159/226/1 160/227/1 161/228/1 162/229/1
f 102/148/1 93/134/1 95/136/1 138/198/1
f 163/230/1 164/231/1 165/232/1 166/233/1
f 167/234/2 168/235/2 169/236/2 170/237/2
f 171/238/1 172/239/1 173/240/1 174/241/1
f 162/242/7 175/243/7 176/244/7 159/245/7
f 177/246/2 178/247/2 179/248/2 180/249/2
f 175/250/2 177/246/2 180/249/2 176/251/2
f 145/206/1 157/224/1 156/223/1 142/203/1
f 174/241/1 161/228/1 160/227/1 171/238/1
f 60/71/1 24/70/1 181/252/1 90/127/1
f 24/27/12 23/26/12 182/253/3 181/254/3
f 75/100/2 78/103/2 183/255/2 184/256/2
f 23/110/2 75/100/2 184/256/2 182/257/2
f 86/121/1 89/124/1 91/128/1 185/258/1
f 18/138/1 96/137/1 101/147/1 15/259/1
f 124/174/1 186/260/1 187/261/1 121/171/1
f 99/145/1 141/201/1 188/262/1 100/146/1
f 66/82/2 57/64/2 56/63/2 189/263/2
f 149/213/2 59/66/2 65/81/2 190/264/2
f 130/186/2 191/265/2 190/264/2 65/81/2
f 192/266/2 134/190/2 66/82/2 189/263/2
f 179/248/2 193/267/2 189/263/2 56/63/2
f 194/268/2 152/217/2 183/255/2 195/269/2
f 195/269/2 183/255/2 78/103/2 112/161/2
f 196/270/2 110/159/2 72/97/2 74/99/2
f 135/194/5 68/193/5 105/152/5 104/151/5
f 12/14/5 11/13/5 107/154/5 106/153/5
f 19/196/1 136/195/1 114/164/1 113/163/1
f 80/114/1 79/113/1 116/166/1 115/165/1
f 136/195/1 137/197/1 117/167/1 114/164/1
f 82/117/1 80/114/1 115/165/1 118/168/1
f 137/197/1 139/199/1 119/169/1 117/167/1
f 84/119/1 82/117/1 118/168/1 120/170/1
f 141/201/1 140/200/1 122/172/1 121/171/1
f 87/122/1 86/121/1 124/174/1 123/173/1
f 140/200/1 135/202/1 104/175/1 122/172/1
f 11/125/1 87/122/1 123/173/1 107/176/1
f 79/156/9 108/155/9 125/178/9 116/177/9
f 20/22/9 19/21/9 113/180/9 126/179/9
f 108/158/2 109/157/2 127/182/2 125/181/2
f 64/80/2 20/79/2 126/184/2 128/183/2
f 109/157/2 110/159/2 129/185/2 127/182/2
f 65/81/2 64/80/2 128/183/2 130/186/2
f 112/161/2 111/160/2 132/188/2 131/187/2
f 67/83/2 66/82/2 134/190/2 133/189/2
f 111/160/2 12/162/2 106/191/2 132/188/2
f 68/84/2 67/83/2 133/189/2 105/192/2
f 158/225/1 163/230/1 166/233/1 155/222/1
f 172/239/1 165/232/1 164/231/1 173/240/1
f 86/121/1 185/258/1 186/260/1 124/174/1
f 188/262/1 141/201/1 121/171/1 187/261/1
f 129/185/2 197/271/2 191/265/2 130/186/2
f 110/159/2 196/270/2 197/271/2 129/185/2
f 198/272/2 131/187/2 134/190/2 192/266/2
f 195/269/2 112/161/2 131/187/2 198/272/2
f 90/127/1 181/252/1 143/204/1 142/203/1
f 3/3/1 2/2/1 145/206/1 144/205/1
f 181/254/3 182/253/3 146/208/3 143/207/3
f 9/10/3 3/9/3 144/210/3 147/209/3
f 184/256/2 183/255/2 152/217/2 151/216/2
f 74/99/2 73/98/2 154/219/2 153/218/2
f 182/257/2 184/256/2 151/216/2 146/220/2
f 73/98/2 9/109/2 147/221/2 154/219/2
f 185/258/1 91/128/1 156/223/1 155/222/1
f 85/120/1 84/119/1 158/225/1 157/224/1
f 15/259/1 101/147/1 160/227/1 159/226/1
f 95/136/1 94/135/1 162/229/1 161/228/1
f 120/170/1 119/169/1 164/231/1 163/230/1
f 187/261/1 186/260/1 166/233/1 165/232/1
f 100/146/1 188/262/1 172/239/1 171/238/1
f 139/199/1 138/198/1 174/241/1 173/240/1
f 94/212/7 148/211/7 175/243/7 162/242/7
f 16/18/7 15/17/7 159/245/7 176/244/7
f 150/214/2 149/213/2 178/247/2 177/246/2
f 56/63/2 55/62/2 180/249/2 179/248/2
f 148/215/2 150/214/2 177/246/2 175/250/2
f 55/62/2 16/88/2 176/251/2 180/249/2
f 2/2/1 85/120/1 157/224/1 145/206/1
f 91/128/1 90/127/1 142/203/1 156/223/1
f 138/198/1 95/136/1 161/228/1 174/241/1
f 101/147/1 100/146/1 171/238/1 160/227/1
f 84/119/1 120/170/1 163/230/1 158/225/1
f 186/260/1 185/258/1 155/222/1 166/233/1
f 188/262/1 187/261/1 165/232/1 172/239/1
f 119/169/1 139/199/1 173/240/1 164/231/1
f 149/213/2 190/264/2 199/273/2 178/247/2
f 178/247/2 199/273/2 193/267/2 179/248/2
f 196/270/2 74/99/2 153/218/2 200/274/2
f 194/268/2 200/274/2 153/218/2 152/217/2
f 201/275/2 202/276/2 203/277/2 204/278/2
f 168/235/2 204/278/2 203/277/2 169/236/2
f 205/279/2 206/280/2 207/281/2 208/282/2
f 207/281/2 209/283/2 210/284/2 208/282/2
f 210/284/2 209/283/2 211/285/2 212/286/2
f 170/237/2 169/236/2 210/284/2 212/286/2
f 169/236/2 203/277/2 208/282/2 210/284/2
f 205/279/2 208/282/2 203/277/2 202/276/2
f 200/287/27 194/288/28 205/289/28 202/290/27
f 194/288/28 195/291/29 206/292/29 205/289/28
f 195/291/29 198/293/30 207/294/30 206/292/29
f 198/293/30 192/295/31 209/296/31 207/294/30
f 192/295/31 189/297/32 211/298/32 209/296/31
f 189/297/32 193/299/33 212/300/33 211/298/32
f 193/299/33 199/301/34 170/302/34 212/300/33
f 199/301/34 190/303/35 167/304/35 170/302/34
f 190/305/35 191/306/36 168/307/36 167/308/35
f 191/306/36 197/309/37 204/310/37 168/307/36
f 197/309/37 196/311/38 201/312/38 204/310/37
f 196/311/38 200/287/27 202/290/27 201/312/38
